# xmcd
#
# Track frame offsets: 
#        150
#        9810
#        21340
#        35703
#        47178
#        66990
#        78693
#        93895
#        107783
#        119610
#        132928
#
# Disc length: 1985 seconds
#
# Revision: 2
# Processed by: cddbd v1.5.2PL0 Copyright (c) Steve Scherf et al.
# Submitted via: ExactAudioCopy v0.99pb4
#
DISCID=9407bf0b
DTITLE=Wagoneers - Stout And High
DYEAR=1988
DGENRE=Country
TTITLE0=I Confess
TTITLE1=Help Me Get Over You
TTITLE2=So Many Mistakes
TTITLE3=Please Don't Think I'm Guilty
TTITLE4=Stout And High
TTITLE5=I Wanna Know Her Again
TTITLE6=It'll Take Some Time
TTITLE7=Lie And Say You Love Me
TTITLE8=Every Step Of The Way
TTITLE9=Hell Town
TTITLE10=All Nite
EXTD=
EXTT0=
EXTT1=
EXTT2=
EXTT3=
EXTT4=
EXTT5=
EXTT6=
EXTT7=
EXTT8=
EXTT9=
EXTT10=
PLAYORDER=
